{"accessors" : [{"bufferView" : 0, "byteOffset" : 0, "componentType" : 5123, "count" : 1128, "type" : "SCALAR", "max" : [1033], "min" : [0]}, {"bufferView" : 1, "byteOffset" : 0, "componentType" : 5126, "count" : 1034, "type" : "VEC3", "max" : [0.7067803144454956, 1.3249255418777466, 0.34380751848220825], "min" : [-0.7067800760269165, -2.046765089035034, -0.2827240824699402], "name" : "POSITION"}, {"bufferView" : 1, "byteOffset" : 12, "componentType" : 5126, "count" : 1034, "type" : "VEC3", "max" : [0.9664664268493652, 0.9575343728065491, 0.9170517921447754], "min" : [-0.9664663672447205, -0.9741170406341553, -0.9627829790115356], "name" : "NORMAL"}, {"bufferView" : 1, "byteOffset" : 24, "componentType" : 5126, "count" : 1034, "type" : "VEC2", "max" : [0.8750001192092896, 1], "min" : [0.1250000149011612, -1.1920928955078125E-07], "name" : "TEXCOORD_0"}, {"bufferView" : 0, "byteOffset" : 2256, "componentType" : 5123, "count" : 1032, "type" : "SCALAR", "max" : [945], "min" : [0]}, {"bufferView" : 2, "byteOffset" : 0, "componentType" : 5126, "count" : 946, "type" : "VEC3", "max" : [0.6854932308197021, 1.9259400367736816, 0.3823559880256653], "min" : [-0.6854931712150574, -1.7168203592300415, -0.25432685017585754], "name" : "POSITION"}, {"bufferView" : 2, "byteOffset" : 12, "componentType" : 5126, "count" : 946, "type" : "VEC3", "max" : [0.9770129919052124, 0.9119789004325867, 0.9627829790115356], "min" : [-0.977013111114502, -0.9119775295257568, -0.9401252269744873], "name" : "NORMAL"}, {"bufferView" : 2, "byteOffset" : 24, "componentType" : 5126, "count" : 946, "type" : "VEC2", "max" : [0.8750001192092896, 1], "min" : [0.1250000149011612, -1.1920928955078125E-07], "name" : "TEXCOORD_0"}], "asset" : {"generator" : "Aspose.3D 22.10", "version" : "2.0"}, "buffers" : [{"uri" : "data:application/octet-stream;base64,", "byteLength" : 73452}], "bufferViews" : [{"buffer" : 0, "byteOffset" : 0, "byteLength" : 4320, "target" : 34963}, {"buffer" : 0, "byteOffset" : 4324, "byteLength" : 36096, "byteStride" : 32, "target" : 34962}, {"buffer" : 0, "byteOffset" : 40424, "byteLength" : 33024, "byteStride" : 32, "target" : 34962}], "materials" : [{"name" : "MaleDummyWhite", "pbrMetallicRoughness" : {"baseColorFactor" : [1, 1, 1, 1], "metallicFactor" : 0, "roughnessFactor" : 0.5}, "emissiveFactor" : [0, 0, 0], "alphaMode" : "OPAQUE", "doubleSided" : true}, {"name" : "MaleDummyRed", "pbrMetallicRoughness" : {"baseColorFactor" : [1, 0.09595833718776703, 0.06901621073484421, 1], "metallicFactor" : 0, "roughnessFactor" : 0.5}, "emissiveFactor" : [0, 0, 0], "alphaMode" : "OPAQUE", "doubleSided" : true}], "meshes" : [{"primitives" : [{"attributes" : {"POSITION" : 1, "NORMAL" : 2, "TEXCOORD_0" : 3}, "indices" : 0, "material" : 0, "mode" : 4}, {"attributes" : {"POSITION" : 5, "NORMAL" : 6, "TEXCOORD_0" : 7}, "indices" : 4, "material" : 1, "mode" : 4}]}], "nodes" : [{"mesh" : 0, "name" : "MaleDummy"}], "scene" : 0, "scenes" : [{"nodes" : [0]}]}